<svg width="91" height="54" viewBox="0 0 91 54" fill="none" xmlns="http://www.w3.org/2000/svg">
<g filter="url(#filter0_d_205_7)">
<path d="M64.254 0C70.4957 0 75.8376 2.185 80.2796 6.555C84.7599 10.8867 87 16.5408 87 23.5175C87 30.4942 84.7024 35.995 80.1073 40.02C75.5121 44.0067 70.0554 46 63.737 46C57.4187 46 51.9811 44.4858 47.4242 41.4575C42.8674 38.3908 37.985 33.1008 32.7772 25.5875C31.7815 24.0925 30.9391 23.0575 30.2498 22.4825C29.5606 21.8692 28.7755 21.5625 27.8948 21.5625C26.4397 21.5625 25.7121 22.1375 25.7121 23.2875C25.7121 23.6708 25.7887 23.9583 25.9419 24.15H26.8035C27.9905 24.15 28.9096 24.5333 29.5606 25.3C29.6371 25.4533 29.7903 25.6833 30.0201 25.99C30.2498 26.2967 30.4221 26.5458 30.537 26.7375C33.4473 31.4525 37.1617 35.9183 41.6803 40.135C39.3827 42.205 37.1043 43.7 34.845 44.62C32.624 45.54 29.9435 46 26.8035 46C20.4851 46 15.2007 43.9875 10.9502 39.9625C6.31672 35.6308 4 29.9767 4 23C4 16.0233 6.41246 10.3692 11.2374 6.0375C15.6794 2.0125 21.0404 0 27.3204 0C33.6388 0 39.1721 1.59083 43.9204 4.7725C48.3241 7.7625 53.1107 12.9758 58.2803 20.4125C59.2759 21.9075 60.1183 22.9617 60.8076 23.575C61.4969 24.15 62.2819 24.4375 63.1626 24.4375C64.6178 24.4375 65.3453 23.8625 65.3453 22.7125C65.3453 22.3292 65.2687 22.0417 65.1156 21.85H64.254C63.3732 21.85 62.684 21.6583 62.1862 21.275C61.6883 20.8917 61.1331 20.2208 60.5204 19.2625C57.6101 14.5475 53.8957 10.0817 49.3772 5.865C51.6747 3.795 53.934 2.3 56.155 1.38C58.4143 0.46 61.114 0 64.254 0Z" fill="url(#paint0_linear_205_7)"/>
</g>
<defs>
<filter id="filter0_d_205_7" x="0" y="0" width="91" height="54" filterUnits="userSpaceOnUse" color-interpolation-filters="sRGB">
<feFlood flood-opacity="0" result="BackgroundImageFix"/>
<feColorMatrix in="SourceAlpha" type="matrix" values="0 0 0 0 0 0 0 0 0 0 0 0 0 0 0 0 0 0 127 0" result="hardAlpha"/>
<feOffset dy="4"/>
<feGaussianBlur stdDeviation="2"/>
<feComposite in2="hardAlpha" operator="out"/>
<feColorMatrix type="matrix" values="0 0 0 0 0 0 0 0 0 0 0 0 0 0 0 0 0 0 0.25 0"/>
<feBlend mode="normal" in2="BackgroundImageFix" result="effect1_dropShadow_205_7"/>
<feBlend mode="normal" in="SourceGraphic" in2="effect1_dropShadow_205_7" result="shape"/>
</filter>
<linearGradient id="paint0_linear_205_7" x1="45.5" y1="0" x2="45.5" y2="46" gradientUnits="userSpaceOnUse">
<stop stop-color="#FB923C"/>
<stop offset="1" stop-color="#FB473C"/>
</linearGradient>
</defs>
</svg>
